<?xml version="1.0" encoding="UTF-8" standalone="no"?>
<svg
   width="900px"
   height="900px"
   viewBox="0 0 900 900"
   version="1.1"
   xml:space="preserve"
   id="SVGRoot"
   inkscape:version="1.4 (86a8ad7, 2024-10-11)"
   sodipodi:docname="atw.svg"
   inkscape:export-filename="atw.png"
   inkscape:export-xdpi="96"
   inkscape:export-ydpi="96"
   xmlns:inkscape="http://www.inkscape.org/namespaces/inkscape"
   xmlns:sodipodi="http://sodipodi.sourceforge.net/DTD/sodipodi-0.dtd"
   xmlns="http://www.w3.org/2000/svg"
   xmlns:svg="http://www.w3.org/2000/svg"
   xmlns:rdf="http://www.w3.org/1999/02/22-rdf-syntax-ns#"
   xmlns:cc="http://creativecommons.org/ns#"
   xmlns:dc="http://purl.org/dc/elements/1.1/"><title
   id="title7">Applied Thermodynamics Workbook</title><defs
   id="defs2" />
<sodipodi:namedview
   pagecolor="#a9a9a9"
   bordercolor="#292929"
   borderopacity="1"
   inkscape:showpageshadow="2"
   inkscape:pageopacity="0.0"
   inkscape:pagecheckerboard="0"
   inkscape:deskcolor="#232323"
   id="namedview1"
   showguides="false"
   inkscape:zoom="0.81666667"
   inkscape:cx="448.77551"
   inkscape:cy="401.02041"
   inkscape:window-width="2880"
   inkscape:window-height="1514"
   inkscape:window-x="5749"
   inkscape:window-y="-11"
   inkscape:window-maximized="1"
   inkscape:current-layer="SVGRoot" />
<style
   type="text/css"
   id="style1">
g.prefab path {
  vector-effect:non-scaling-stroke;
  -inkscape-stroke:hairline;
  fill: none;
  fill-opacity: 1;
  stroke-opacity: 1;
  stroke: #00349c;
}
</style>
<g
   inkscape:label="Target"
   style="fill: white; stroke-width: 2; stroke: black;"
   class="prefab"
   id="g2">
  <path
   d="M 849.53146,50.000002 H 49.707105 L 849.53146,850.00003 Z M 451.68747,50 H 850 V 850 H 451.68747 Z M 50.175632,450 H 849.99997 V 850 H 50.175632 Z m -10e-7,-399.999998 H 849.99998 L 50.175631,850.00003 Z"
   id="path1" />
  <path
   d="M 450,50 A 400,400 0 0 0 50,450 400,400 0 0 0 450,850 400,400 0 0 0 850,450 400,400 0 0 0 450,50 Z m 0,100 A 300,300 0 0 1 750,450 300,300 0 0 1 450,750 300,300 0 0 1 150,450 300,300 0 0 1 450,150 Z m 0,100 A 200,200 0 0 0 250,450 200,200 0 0 0 450,650 200,200 0 0 0 650,450 200,200 0 0 0 450,250 Z m 0,100 A 100,100 0 0 1 550,450 100,100 0 0 1 450,550 100,100 0 0 1 350,450 100,100 0 0 1 450,350 Z"
   id="path2" />
</g>
<text
   xml:space="preserve"
   style="font-size:8px;font-family:'Baskerville Old Face';-inkscape-font-specification:'Baskerville Old Face, Normal';text-align:center;writing-mode:lr-tb;direction:ltr;text-anchor:middle;fill:#d40000"
   x="127.34694"
   y="126.12245"
   id="text2"><tspan
     sodipodi:role="line"
     id="tspan2" /></text><text
   xml:space="preserve"
   style="font-size:106.667px;font-family:'Baskerville Old Face';-inkscape-font-specification:'Baskerville Old Face, Normal';text-align:center;writing-mode:lr-tb;direction:ltr;text-anchor:middle;fill:#d40000"
   x="464.08163"
   y="432.2449"
   id="text3"><tspan
     sodipodi:role="line"
     x="464.08163"
     y="432.2449"
     id="tspan5"
     style="font-size:106.667px">Applied </tspan><tspan
     sodipodi:role="line"
     x="464.08163"
     y="565.57867"
     id="tspan3"
     style="font-size:106.667px">Thermodynamics </tspan><tspan
     sodipodi:role="line"
     x="464.08163"
     y="698.91241"
     id="tspan4"
     style="font-size:106.667px">Workbook</tspan></text><text
   xml:space="preserve"
   style="font-size:344.269px;font-family:'Baskerville Old Face';-inkscape-font-specification:'Baskerville Old Face, Normal';text-align:center;writing-mode:lr-tb;direction:ltr;text-anchor:middle;fill:#d40000;stroke-width:1"
   x="508.9837"
   y="280.03119"
   id="text6"
   transform="scale(0.87621501,1.1412724)"><tspan
     sodipodi:role="line"
     id="tspan6"
     x="508.9837"
     y="280.03119"
     style="font-size:344.269px;stroke-width:1" /></text><text
   xml:space="preserve"
   style="font-size:192.392px;font-family:'Baskerville Old Face';-inkscape-font-specification:'Baskerville Old Face, Normal';text-align:center;writing-mode:lr-tb;direction:ltr;text-anchor:middle;fill:#d40000;stroke-width:0.999997"
   x="446.74478"
   y="253.19095"
   id="text7"
   transform="scale(0.97996504,1.0204446)"><tspan
     sodipodi:role="line"
     id="tspan7"
     x="446.74478"
     y="253.19095"
     style="stroke-width:0.999997">ATW</tspan></text><metadata
   id="metadata7"><rdf:RDF><cc:Work
       rdf:about=""><dc:title>Applied Thermodynamics Workbook</dc:title></cc:Work></rdf:RDF></metadata></svg>
